<svg width="24" height="24" viewBox="0 0 24 24" fill="none" xmlns="http://www.w3.org/2000/svg">
  <path d="M16.365 1.43C16.365 2.575 15.924 3.676 15.214 4.459C14.366 5.388 12.994 6.116 11.837 6.04C11.683 4.944 12.234 3.782 12.935 3.005C13.712 2.14 15.085 1.465 16.365 1.43ZM20.438 17.452C19.881 18.74 19.626 19.31 18.905 20.468C17.927 22.033 16.545 23.952 14.823 23.969C13.289 23.985 12.894 22.974 10.786 22.983C8.679 22.995 8.243 23.987 6.71 23.972C4.988 23.955 3.655 22.211 2.68 20.651C-0.038 16.304 -0.324 11.18 1.356 8.603C2.55 6.771 4.434 5.699 6.222 5.699C8.043 5.699 9.189 6.711 10.769 6.711C12.303 6.711 13.235 5.699 15.3 5.699C16.891 5.699 18.577 6.55 19.767 8.019C15.835 10.187 16.491 15.864 20.438 17.452Z" fill="#111111"/>
</svg>
