<svg width="24" height="24" viewBox="0 0 24 24" fill="none" xmlns="http://www.w3.org/2000/svg">
  <path d="M23.49 12.27C23.49 11.48 23.42 10.73 23.29 10H12V14.31H18.44C18.16 15.74 17.34 16.95 16.11 17.76V20.76H19.98C22.24 18.68 23.49 15.61 23.49 12.27Z" fill="#4285F4"/>
  <path d="M12 24C15.24 24 17.96 22.93 19.98 20.76L16.11 17.76C15.04 18.48 13.67 18.91 12 18.91C8.87 18.91 6.22 16.8 5.27 13.96H1.28V17.05C3.29 21.03 7.41 24 12 24Z" fill="#34A853"/>
  <path d="M5.27 13.96C5.02 13.24 4.89 12.47 4.89 11.68C4.89 10.89 5.03 10.12 5.27 9.4V6.31H1.28C0.46 7.92 0 9.76 0 11.68C0 13.6 0.46 15.44 1.28 17.05L5.27 13.96Z" fill="#FBBC05"/>
  <path d="M12 4.46C13.82 4.46 15.46 5.08 16.76 6.3L20.07 2.99C17.95 1 15.24 0 12 0C7.41 0 3.29 2.97 1.28 6.95L5.27 10.04C6.22 7.2 8.87 4.46 12 4.46Z" fill="#EA4335"/>
</svg>
